# xmcd
#
# Track frame offsets:
#	150
#	31675
#	59672
#
# Disc length: 1046 seconds
#
# Revision: 2
# Processed by: cddbd v1.5.1PL0 Copyright (c) Steve Scherf et al.
# Submitted via: MusicWizard 7.0.2
#
DISCID=1f041403
DTITLE=Captain Hollywood Project - More And More (Remixes)
DYEAR=1992
DGENRE=Dance - Disco
TTITLE0=More And More (Karizma Remix)
TTITLE1=More And More (Hollywood Remix)
TTITLE2=More And More (Original Single Version)
EXTD=
EXTT0=
EXTT1=
EXTT2=
PLAYORDER=
